<svg xmlns="http://www.w3.org/2000/svg" viewBox="0 0 32 32">

  <!-- Anchor ring top -->
  <circle cx="16" cy="7" r="3.2" fill="none" stroke="#c49a10" stroke-width="2"/>

  <!-- Anchor vertical bar -->
  <line x1="16" y1="10.2" x2="16" y2="22" stroke="#c49a10" stroke-width="2" stroke-linecap="round"/>

  <!-- Anchor horizontal bar -->
  <line x1="9" y1="14" x2="23" y2="14" stroke="#c49a10" stroke-width="2" stroke-linecap="round"/>

  <!-- Left fluke curve -->
  <path d="M9,19 C6,22 7,27 11,26 C13.5,25.5 16,22 16,22" fill="none" stroke="#c49a10" stroke-width="2" stroke-linecap="round"/>
  <!-- Right fluke curve -->
  <path d="M23,19 C26,22 25,27 21,26 C18.5,25.5 16,22 16,22" fill="none" stroke="#c49a10" stroke-width="2" stroke-linecap="round"/>

  <!-- Tail fin left -->
  <path d="M11,26 C9,29 7,31 10,31.5 C13,32 14.5,28.5 16,27" fill="#c49a10"/>
  <!-- Tail fin right -->
  <path d="M21,26 C23,29 25,31 22,31.5 C19,32 17.5,28.5 16,27" fill="#c49a10"/>

  <!-- Anchor feet -->
  <path d="M16,22 C14,20.5 9.5,20.5 9,19" fill="none" stroke="#c49a10" stroke-width="2" stroke-linecap="round"/>
  <path d="M16,22 C18,20.5 22.5,20.5 23,19" fill="none" stroke="#c49a10" stroke-width="2" stroke-linecap="round"/>

  <!-- Star accent -->
  <polygon points="22,3 22.6,4.8 24.5,4.8 23,5.9 23.6,7.7 22,6.6 20.4,7.7 21,5.9 19.5,4.8 21.4,4.8" fill="#c49a10"/>

</svg>
